<svg width="48" height="48" viewBox="0 0 48 48" fill="none" xmlns="http://www.w3.org/2000/svg">
<rect width="48" height="48" rx="24" fill="#1C1F22"/>
<path d="M16.75 13.875C16.1864 13.875 15.6459 14.0989 15.2474 14.4974C14.8489 14.8959 14.625 15.4364 14.625 16C14.625 16.5636 14.8489 17.1041 15.2474 17.5026C15.6459 17.9011 16.1864 18.125 16.75 18.125C17.3136 18.125 17.8541 17.9011 18.2526 17.5026C18.6511 17.1041 18.875 16.5636 18.875 16C18.875 15.4364 18.6511 14.8959 18.2526 14.4974C17.8541 14.0989 17.3136 13.875 16.75 13.875ZM14.75 19.875C14.7168 19.875 14.6851 19.8882 14.6616 19.9116C14.6382 19.9351 14.625 19.9668 14.625 20V33C14.625 33.069 14.681 33.125 14.75 33.125H18.75C18.7832 33.125 18.8149 33.1118 18.8384 33.0884C18.8618 33.0649 18.875 33.0332 18.875 33V20C18.875 19.9668 18.8618 19.9351 18.8384 19.9116C18.8149 19.8882 18.7832 19.875 18.75 19.875H14.75ZM21.25 19.875C21.2168 19.875 21.1851 19.8882 21.1616 19.9116C21.1382 19.9351 21.125 19.9668 21.125 20V33C21.125 33.069 21.181 33.125 21.25 33.125H25.25C25.2832 33.125 25.3149 33.1118 25.3384 33.0884C25.3618 33.0649 25.375 33.0332 25.375 33V26C25.375 25.5027 25.5725 25.0258 25.9242 24.6742C26.2758 24.3225 26.7527 24.125 27.25 24.125C27.7473 24.125 28.2242 24.3225 28.5758 24.6742C28.9275 25.0258 29.125 25.5027 29.125 26V33C29.125 33.069 29.181 33.125 29.25 33.125H33.25C33.2832 33.125 33.3149 33.1118 33.3384 33.0884C33.3618 33.0649 33.375 33.0332 33.375 33V24.38C33.375 21.953 31.265 20.055 28.85 20.274C28.1028 20.342 27.3709 20.5269 26.681 20.822L25.375 21.382V20C25.375 19.9668 25.3618 19.9351 25.3384 19.9116C25.3149 19.8882 25.2832 19.875 25.25 19.875H21.25Z" fill="#FCFDFD"/>
</svg>
